<svg xmlns="http://www.w3.org/2000/svg" xmlns:xlink="http://www.w3.org/1999/xlink" width="24.649804687500364" height="8.650781250000364" viewBox="0 0 24.649804687500364 8.650781250000364" fill="none">
<g filter="url(#filter_6_12)">
<rect  x="0.4249023437496362" y="0.4253906249996362" width="7" height="6" rx="0.5"    fill="#232323" >
</rect>
<path   fill="rgba(255, 255, 255, 1)"  d="M0.924902 0.400391L6.9249 0.400391C7.21485 0.400391 7.4499 0.635441 7.4499 0.925391L7.4499 5.92539C7.4499 6.21534 7.21485 6.45039 6.9249 6.45039L0.924902 6.45039C0.634953 6.45039 0.399902 6.21534 0.399902 5.92539L0.399902 0.925391C0.399902 0.635441 0.634953 0.400391 0.924902 0.400391ZM0.924902 0.450391C0.662567 0.450391 0.449902 0.663055 0.449902 0.925391L0.449902 5.92539C0.449902 6.18773 0.662567 6.40039 0.924902 6.40039L6.9249 6.40039C7.18724 6.40039 7.3999 6.18773 7.3999 5.92539L7.3999 0.925391C7.3999 0.663055 7.18724 0.450391 6.9249 0.450391L0.924902 0.450391Z">
</path>
</g>
<g filter="url(#filter_6_20)">
<path   fill-rule="evenodd"  fill="#232323"  d="M8.4249 6.42539L10.4249 6.42539C11.0249 6.42539 12.4249 6.42539 12.4249 4.42539C12.4249 2.42539 10.4249 2.42539 10.4249 2.42539L9.4249 2.42539L9.4249 1.42539C9.4249 1.03903 9.32004 0.801944 9.17409 0.656458C9.0272 0.52089 8.79426 0.425391 8.4249 0.425391L8.4249 6.42539ZM9.17409 0.656458C8.94302 0.426124 8.60895 0.425391 8.4249 0.425391C8.79426 0.425391 9.0272 0.52089 9.17409 0.656458ZM9.4249 1.42539C9.4249 1.2362 9.4249 0.887924 9.17409 0.656458C9.32004 0.801944 9.4249 1.03903 9.4249 1.42539ZM9.4249 5.02539C9.4249 5.2463 9.60399 5.42539 9.8249 5.42539L10.4249 5.42539C10.7249 5.42539 11.4249 5.42539 11.4249 4.42539C11.4249 4.12539 11.4249 3.42539 10.4249 3.42539C10.1439 3.42539 9.93594 3.42539 9.78382 3.42539C9.56291 3.42539 9.4249 3.60448 9.4249 3.82539L9.4249 5.02539Z">
</path>
<path   fill="rgba(204, 204, 204, 1)"  d="M8.4499 0.425391L8.4499 6.42539L8.4249 6.42539L8.4249 6.40039L10.4249 6.40039Q10.7731 6.40039 10.9869 6.3694Q11.3636 6.31482 11.6372 6.15384Q12.3999 5.70521 12.3999 4.42539Q12.3999 3.19085 11.4137 2.69775Q11.1046 2.54318 10.7333 2.4813Q10.5478 2.45039 10.4249 2.45039L9.4249 2.45039L9.4249 2.40039L10.4249 2.40039Q10.552 2.40039 10.7415 2.43198Q11.1202 2.4951 11.4361 2.65303Q12.4499 3.15995 12.4499 4.42539Q12.4499 5.73382 11.6626 6.19694Q11.3805 6.36289 10.9941 6.41888Q10.7767 6.45039 10.4249 6.45039L8.3999 6.45039L8.3999 0.425391L8.4499 0.425391ZM8.4249 0.400391M8.4249 0.400391Q9.08626 0.400391 9.32145 0.800215Q9.4499 1.01858 9.4499 1.42539L9.3999 1.42539Q9.3999 1.0322 9.27835 0.825566Q9.05766 0.450391 8.4249 0.450391L8.4249 0.400391ZM8.4249 0.400391M8.4249 0.400391Q8.83104 0.400391 9.05021 0.529586Q9.4499 0.765201 9.4499 1.42539L9.3999 1.42539Q9.3999 0.793767 9.02482 0.57266Q8.8174 0.450391 8.4249 0.450391L8.4249 0.400391ZM9.3999 2.42539L9.3999 1.42539L9.4499 1.42539L9.4499 2.42539L9.3999 2.42539ZM9.4499 2.42539M9.4499 2.42539L9.4499 2.44684L9.4249 2.44684L9.3999 2.44684L9.3999 1.42539L9.4499 1.42539L9.4499 2.44684C9.4499 2.48017 9.3999 2.48017 9.3999 2.44684L9.3999 2.42539L9.4499 2.42539ZM9.4499 3.82539L9.4499 5.02539C9.4499 5.2325 9.61779 5.40039 9.8249 5.40039L10.4249 5.40039Q10.8181 5.40039 11.0247 5.27884Q11.3999 5.05816 11.3999 4.42539Q11.3999 4.0322 11.2784 3.82557Q11.0577 3.45039 10.4249 3.45039L9.78382 3.45039Q9.63355 3.45039 9.54049 3.55883Q9.4499 3.6644 9.4499 3.82539L9.3999 3.82539Q9.3999 3.64588 9.50255 3.52627Q9.61057 3.40039 9.78382 3.40039L10.4249 3.40039Q11.0863 3.40039 11.3215 3.80022Q11.4499 4.01858 11.4499 4.42539Q11.4499 5.08675 11.0501 5.32194Q10.8317 5.45038 10.4249 5.45039L9.8249 5.45039C9.59018 5.45039 9.3999 5.26011 9.3999 5.02539L9.3999 3.82539L9.4499 3.82539ZM8.4249 0.400391L8.4249 0.425391L8.3999 0.425391L8.3999 0.400391L8.4249 0.400391Z">
</path>
</g>
<g filter="url(#filter_6_21)">
<path     fill="#232323"  d="M13.4249 6.02539C13.4249 6.2463 13.604 6.42539 13.8249 6.42539L14.0249 6.42539C14.2458 6.42539 14.4249 6.2426 14.4249 6.02168C14.4249 4.72267 14.4249 2.32139 14.4249 1.42539C14.4249 0.425391 13.7249 0.425391 13.4249 0.425391L13.4249 6.02539Z">
</path>
<path   fill="rgba(204, 204, 204, 1)"  d="M13.4249 0.400391M13.4249 0.400391Q13.8317 0.400391 14.0501 0.528842Q14.4499 0.764033 14.4499 1.42539L14.4499 3.98039L14.4499 6.02168C14.4499 6.25641 14.2596 6.45039 14.0249 6.45039L13.8249 6.45039C13.5902 6.45039 13.3999 6.26011 13.3999 6.02539L13.3999 0.425391L13.4499 0.425391L13.4499 6.02539C13.4499 6.2325 13.6178 6.40039 13.8249 6.40039L14.0249 6.40039C14.232 6.40039 14.3999 6.22879 14.3999 6.02168L14.3999 3.98039L14.3999 1.42539Q14.3999 0.792631 14.0247 0.571939Q13.8181 0.450391 13.4249 0.450391L13.4249 0.400391ZM13.4249 0.400391L13.4249 0.425391L13.3999 0.425391L13.3999 0.400391L13.4249 0.400391Z">
</path>
</g>
<g filter="url(#filter_6_22)">
<path d="M15.4249 4.42539C15.4249 5.02539 15.4249 6.42539 17.4249 6.42539C18.0249 6.42539 19.4249 6.42539 19.4249 4.42539C19.4249 3.82539 19.4249 2.42539 17.4249 2.42539C16.8249 2.42539 15.4249 2.42539 15.4249 4.42539ZM17.4249 3.42539C17.1249 3.42539 16.4249 3.42539 16.4249 4.42539C16.4249 4.72539 16.4249 5.42539 17.4249 5.42539C17.7252 5.42598 18.4259 5.42734 18.4249 4.42539C18.4249 4.12539 18.4249 3.42539 17.4249 3.42539Z" stroke="rgba(204, 204, 204, 1)" stroke-width="0.05"    fill-rule="evenodd"  fill="#232323" >
</path>
</g>
<g filter="url(#filter_6_24)">
<path   fill-rule="evenodd"  fill="#232323"  d="M23.0345 6.42539C23.2639 6.42539 23.4767 6.59065 23.4223 6.81354C23.3497 7.11116 23.0949 7.42539 22.4249 7.42539C21.7609 7.42539 21.5378 7.11676 21.4628 6.82154C21.4085 6.60742 21.2458 6.42539 21.0249 6.42539L20.4249 6.42539C20.4249 8.42539 21.8249 8.42539 22.4249 8.42539C24.4249 8.42539 24.4249 7.02539 24.4249 6.42539L24.4249 4.42539C24.4249 2.42539 23.0249 2.42539 22.4249 2.42539C20.4249 2.42539 20.4249 3.82539 20.4249 4.42539C20.4249 6.42539 21.8249 6.42539 22.4249 6.42539L23.0345 6.42539ZM22.4249 3.42539C22.1249 3.42539 21.4249 3.42539 21.4249 4.42539C21.4249 4.72539 21.4249 5.42539 22.4249 5.42539C22.7249 5.4248 23.4249 5.42344 23.4249 4.42539C23.4249 4.12539 23.4249 3.42539 22.4249 3.42539Z">
</path>
<path   fill="rgba(204, 204, 204, 1)"  d="M22.4249 6.45039M22.4249 6.45039Q22.0731 6.45039 21.8557 6.41888Q21.4693 6.36289 21.1872 6.19694Q20.3999 5.7338 20.3999 4.42539Q20.3999 4.07359 20.4314 3.85618Q20.4874 3.46983 20.6534 3.18772Q21.1165 2.40039 22.4249 2.40039Q22.7767 2.40039 22.9941 2.4319Q23.3805 2.48789 23.6626 2.65384Q24.4499 3.11698 24.4499 4.42539L24.4499 6.42539Q24.4499 6.7772 24.4184 6.9946Q24.3624 7.38096 24.1964 7.66307Q23.7333 8.4504 22.4249 8.45039Q22.0731 8.45039 21.8557 8.41888Q21.4693 8.36289 21.1872 8.19694Q20.3999 7.73382 20.3999 6.42539L20.3999 6.40039L21.0249 6.40039Q21.1941 6.40039 21.3237 6.52516Q21.4424 6.63947 21.4871 6.81539Q21.6356 7.40039 22.4249 7.40039Q22.8766 7.40039 23.1327 7.21097Q23.3363 7.06042 23.398 6.80761Q23.4338 6.66105 23.3179 6.55426Q23.2052 6.45039 23.0345 6.45039L22.4249 6.45039L22.4249 6.40039L23.0345 6.40039Q23.2247 6.40039 23.3518 6.5175Q23.4893 6.64426 23.4466 6.81947Q23.3806 7.08985 23.1625 7.25117Q22.8931 7.45038 22.4249 7.45039Q21.5967 7.45039 21.4386 6.82769Q21.3974 6.6656 21.289 6.56118Q21.1739 6.45039 21.0249 6.45039L20.4249 6.45039L20.4249 6.42539L20.4499 6.42539Q20.4499 7.70521 21.2126 8.15384Q21.4862 8.31481 21.8629 8.3694Q22.0767 8.40039 22.4249 8.40039Q23.7047 8.4004 24.1534 7.63772Q24.3143 7.36407 24.3689 6.98743Q24.3999 6.77359 24.3999 6.42539L24.3999 4.42539Q24.3999 3.14557 23.6372 2.69694Q23.3636 2.53597 22.9869 2.48138Q22.7731 2.45039 22.4249 2.45039Q21.1451 2.45039 20.6965 3.21307Q20.5355 3.48672 20.4809 3.86335Q20.4499 4.07719 20.4499 4.42539Q20.4499 5.70521 21.2126 6.15384Q21.4862 6.31481 21.8629 6.3694Q22.0767 6.40039 22.4249 6.40039L22.4249 6.45039ZM23.3999 4.42539M23.3999 4.42539Q23.3999 4.0322 23.2784 3.82557Q23.0577 3.45039 22.4249 3.45039Q22.0317 3.45039 21.8251 3.57194Q21.4499 3.79263 21.4499 4.42539Q21.4499 4.81858 21.5715 5.02522Q21.7921 5.40039 22.4249 5.40039L22.4249 5.40039Q22.8181 5.39962 23.0247 5.2779Q23.3999 5.0569 23.3999 4.42539ZM23.4499 4.42539Q23.4499 5.08547 23.0501 5.32098Q22.8317 5.44959 22.425 5.45039L22.4249 5.45039Q21.7635 5.45039 21.5284 5.05057Q21.3999 4.8322 21.3999 4.42539Q21.3999 3.76403 21.7997 3.52884Q22.0181 3.40039 22.4249 3.40039Q23.0863 3.40039 23.3214 3.80022Q23.4499 4.01858 23.4499 4.42539Z">
</path>
</g>
<g filter="url(#filter_6_30)">
<path     fill="#777777"  d="M3.51852 1.51208L4.50484 2.42539L4.50484 5.42539C5.58176 5.42539 5.57478 4.72539 5.57478 4.42539L5.57478 2.42539L6.5611 1.51208C6.59447 1.48118 6.5726 1.42539 6.52713 1.42539L5.77339 1.42539C5.64583 1.42539 5.52309 1.47415 5.4303 1.56169L5.04481 1.92539L4.6486 1.55851C4.55618 1.47293 4.43487 1.42539 4.30892 1.42539L3.55249 1.42539C3.50701 1.42539 3.48515 1.48118 3.51852 1.51208Z">
</path>
<path   fill="rgba(255, 255, 255, 1)"  d="M3.55249 1.40039L4.30892 1.40039Q4.51464 1.40039 4.66558 1.54017L5.06179 1.90705L5.04481 1.92539L5.02765 1.90721L5.41315 1.54351Q5.56485 1.40039 5.77339 1.40039L6.52713 1.40039C6.59534 1.40039 6.62813 1.48408 6.57808 1.53042L5.59176 2.44373L5.57478 2.42539L5.59978 2.42539L5.59978 4.42539Q5.59978 4.42782 5.59978 4.43115Q5.59984 4.83853 5.46221 5.05533Q5.21144 5.45039 4.50484 5.45039L4.47984 5.45039L4.47984 2.42539L4.50484 2.42539L4.48786 2.44373L3.50154 1.53042C3.45148 1.48408 3.48428 1.40039 3.55249 1.40039L3.55249 1.45039C3.52975 1.45039 3.51882 1.47829 3.5355 1.49373L4.52984 2.41447L4.52984 5.42539L4.50484 5.42539L4.50484 5.40039Q5.18396 5.40039 5.42 5.02854Q5.54983 4.824 5.54978 4.43116Q5.54978 4.42782 5.54978 4.42539L5.54978 2.41447L6.54411 1.49373C6.5608 1.47829 6.54987 1.45039 6.52713 1.45039L5.77339 1.45039Q5.58471 1.45039 5.44746 1.57988L5.04497 1.95961L4.63162 1.57685Q4.49504 1.45039 4.30892 1.45039L3.55249 1.45039L3.55249 1.40039Z">
</path>
</g>
<g filter="url(#filter_6_9)">
<path     fill="#999999"  d="M2.13864 1.51208L3.12496 2.42539L3.12496 5.42539C4.20188 5.42539 4.19489 4.72539 4.19489 4.42539L4.19489 2.42539L5.18121 1.51208C5.21458 1.48118 5.19272 1.42539 5.14725 1.42539L4.39351 1.42539C4.26595 1.42539 4.14321 1.47415 4.05042 1.56169L3.66493 1.92539L3.26872 1.55851C3.1763 1.47293 3.05499 1.42539 2.92903 1.42539L2.17261 1.42539C2.12713 1.42539 2.10527 1.48118 2.13864 1.51208Z">
</path>
<path   fill="rgba(255, 255, 255, 1)"  d="M2.17261 1.40039L2.92903 1.40039Q3.13475 1.40039 3.2857 1.54017L3.68191 1.90705L3.66493 1.92539L3.64777 1.90721L4.03327 1.54351Q4.18496 1.40039 4.39351 1.40039L5.14725 1.40039C5.21546 1.40039 5.24825 1.48408 5.1982 1.53042L4.21188 2.44373L4.19489 2.42539L4.21989 2.42539L4.21989 4.42539Q4.21989 4.42782 4.21989 4.43115Q4.21995 4.83853 4.08233 5.05533Q3.83156 5.45039 3.12496 5.45039L3.09996 5.45039L3.09996 2.42539L3.12496 2.42539L3.10797 2.44373L2.12165 1.53042C2.0716 1.48408 2.10439 1.40039 2.17261 1.40039L2.17261 1.45039C2.14987 1.45039 2.13894 1.47829 2.15562 1.49373L3.14996 2.41447L3.14996 5.42539L3.12496 5.42539L3.12496 5.40039Q3.80407 5.40039 4.04012 5.02854Q4.16995 4.824 4.1699 4.43116Q4.1699 4.42782 4.1699 4.42539L4.1699 2.41447L5.16423 1.49373C5.18091 1.47829 5.16998 1.45039 5.14725 1.45039L4.39351 1.45039Q4.20483 1.45039 4.06758 1.57988L3.66509 1.95961L3.25173 1.57685Q3.11516 1.45039 2.92903 1.45039L2.17261 1.45039L2.17261 1.40039Z">
</path>
</g>
<g filter="url(#filter_6_1)">
<path     fill="#CCCCCC"  d="M1.50498 5.22537C1.50498 5.33583 1.59452 5.42537 1.70497 5.42537L4.19482 5.42537C4.42228 5.42537 4.73479 5.42537 4.73479 4.92537C4.73479 4.42537 4.35636 4.42538 4.19482 4.42538L2.58492 4.42538C2.58492 4.20038 2.58492 3.42539 2.58492 2.42539C2.58492 1.42539 1.82806 1.42539 1.50498 1.42539L1.50498 5.22537Z">
</path>
<path   fill="rgba(255, 255, 255, 1)"  d="M1.50498 1.40039M1.50498 1.40039L1.50499 1.40039Q1.94287 1.40039 2.17806 1.52843Q2.60992 1.76355 2.60992 2.42539L2.60992 4.42538L2.58492 4.42538L2.58492 4.40038L4.19482 4.40038L4.19483 4.40038Q4.41695 4.40038 4.53734 4.46592Q4.75979 4.58703 4.75979 4.92537Q4.75979 5.26887 4.56275 5.38444Q4.45034 5.45037 4.19483 5.45037L4.19482 5.45037L1.70497 5.45037C1.58071 5.45037 1.47998 5.34964 1.47998 5.22537L1.47998 1.42539L1.52998 1.42539L1.52998 5.22537C1.52998 5.32202 1.60832 5.40037 1.70497 5.40037L4.19482 5.40037L4.19483 5.40037Q4.43676 5.40037 4.53746 5.34131Q4.7098 5.24023 4.70979 4.92537Q4.70979 4.61673 4.51343 4.50983Q4.40422 4.45038 4.19483 4.45038L4.19482 4.45038L2.55992 4.45038L2.55992 2.42539Q2.55992 1.79326 2.15415 1.57235Q1.93014 1.45039 1.50499 1.45039L1.50498 1.45039L1.50498 1.40039ZM1.50498 1.40039L1.50498 1.42539L1.47998 1.42539L1.47998 1.40039L1.50498 1.40039Z">
</path>
</g>
<defs>
<filter id="filter_6_12" x="0" y="0" width="8.0498046875" height="7.05078125" filterUnits="userSpaceOnUse" color-interpolation-filters="sRGB">
<feFlood flood-opacity="0" result="feFloodId_6_12"/>
<feColorMatrix in="SourceAlpha" type="matrix" values="0 0 0 0 0 0 0 0 0 0 0 0 0 0 0 0 0 0 127 0" result="hardAlpha_6_12"/>
<feOffset dx="0.1" dy="0.1"/>
<feGaussianBlur stdDeviation="0.25"/>
<feComposite in2="hardAlpha_6_12" operator="out"/>
<feColorMatrix type="matrix" values="0 0 0 0 0 0 0 0 0 0 0 0 0 0 0 0 0 0 0.25 0"/>
<feBlend mode="normal" in2="feFloodId_6_12" result="dropShadow_1_6_12"/>
<feBlend mode="normal" in="SourceGraphic" in2="dropShadow_1_6_12" result="shape_6_12"/>
</filter>
<filter id="filter_6_20" x="8.399999999999636" y="0.3999999999996362" width="4.249804687500728" height="6.250781250000728" filterUnits="userSpaceOnUse" color-interpolation-filters="sRGB">
<feFlood flood-opacity="0" result="feFloodId_6_20"/>
<feColorMatrix in="SourceAlpha" type="matrix" values="0 0 0 0 0 0 0 0 0 0 0 0 0 0 0 0 0 0 127 0" result="hardAlpha_6_20"/>
<feOffset dx="0.1" dy="0.1"/>
<feGaussianBlur stdDeviation="0.05"/>
<feComposite in2="hardAlpha_6_20" operator="out"/>
<feColorMatrix type="matrix" values="0 0 0 0 0 0 0 0 0 0 0 0 0 0 0 0 0 0 0.25 0"/>
<feBlend mode="normal" in2="feFloodId_6_20" result="dropShadow_1_6_20"/>
<feBlend mode="normal" in="SourceGraphic" in2="dropShadow_1_6_20" result="shape_6_20"/>
</filter>
<filter id="filter_6_21" x="13.399999999999636" y="0.3999999999996362" width="1.2498046875007276" height="6.250781250000728" filterUnits="userSpaceOnUse" color-interpolation-filters="sRGB">
<feFlood flood-opacity="0" result="feFloodId_6_21"/>
<feColorMatrix in="SourceAlpha" type="matrix" values="0 0 0 0 0 0 0 0 0 0 0 0 0 0 0 0 0 0 127 0" result="hardAlpha_6_21"/>
<feOffset dx="0.1" dy="0.1"/>
<feGaussianBlur stdDeviation="0.05"/>
<feComposite in2="hardAlpha_6_21" operator="out"/>
<feColorMatrix type="matrix" values="0 0 0 0 0 0 0 0 0 0 0 0 0 0 0 0 0 0 0.25 0"/>
<feBlend mode="normal" in2="feFloodId_6_21" result="dropShadow_1_6_21"/>
<feBlend mode="normal" in="SourceGraphic" in2="dropShadow_1_6_21" result="shape_6_21"/>
</filter>
<filter id="filter_6_22" x="15.399999999999636" y="2.399999999999636" width="4.249804687500728" height="4.250781250000728" filterUnits="userSpaceOnUse" color-interpolation-filters="sRGB">
<feFlood flood-opacity="0" result="feFloodId_6_22"/>
<feColorMatrix in="SourceAlpha" type="matrix" values="0 0 0 0 0 0 0 0 0 0 0 0 0 0 0 0 0 0 127 0" result="hardAlpha_6_22"/>
<feOffset dx="0.1" dy="0.1"/>
<feGaussianBlur stdDeviation="0.05"/>
<feComposite in2="hardAlpha_6_22" operator="out"/>
<feColorMatrix type="matrix" values="0 0 0 0 0 0 0 0 0 0 0 0 0 0 0 0 0 0 0.25 0"/>
<feBlend mode="normal" in2="feFloodId_6_22" result="dropShadow_1_6_22"/>
<feBlend mode="normal" in="SourceGraphic" in2="dropShadow_1_6_22" result="shape_6_22"/>
</filter>
<filter id="filter_6_24" x="20.399999999999636" y="2.399999999999636" width="4.249804687500728" height="6.250781250000728" filterUnits="userSpaceOnUse" color-interpolation-filters="sRGB">
<feFlood flood-opacity="0" result="feFloodId_6_24"/>
<feColorMatrix in="SourceAlpha" type="matrix" values="0 0 0 0 0 0 0 0 0 0 0 0 0 0 0 0 0 0 127 0" result="hardAlpha_6_24"/>
<feOffset dx="0.1" dy="0.1"/>
<feGaussianBlur stdDeviation="0.05"/>
<feComposite in2="hardAlpha_6_24" operator="out"/>
<feColorMatrix type="matrix" values="0 0 0 0 0 0 0 0 0 0 0 0 0 0 0 0 0 0 0.25 0"/>
<feBlend mode="normal" in2="feFloodId_6_24" result="dropShadow_1_6_24"/>
<feBlend mode="normal" in="SourceGraphic" in2="dropShadow_1_6_24" result="shape_6_24"/>
</filter>
<filter id="filter_6_30" x="3.05126953125" y="1" width="4.1767578125" height="5.05078125" filterUnits="userSpaceOnUse" color-interpolation-filters="sRGB">
<feFlood flood-opacity="0" result="feFloodId_6_30"/>
<feColorMatrix in="SourceAlpha" type="matrix" values="0 0 0 0 0 0 0 0 0 0 0 0 0 0 0 0 0 0 127 0" result="hardAlpha_6_30"/>
<feOffset dx="0.1" dy="0.1"/>
<feGaussianBlur stdDeviation="0.25"/>
<feComposite in2="hardAlpha_6_30" operator="out"/>
<feColorMatrix type="matrix" values="0 0 0 0 0 0 0 0 0 0 0 0 0 0 0 0 0 0 0.25 0"/>
<feBlend mode="normal" in2="feFloodId_6_30" result="dropShadow_1_6_30"/>
<feBlend mode="normal" in="SourceGraphic" in2="dropShadow_1_6_30" result="shape_6_30"/>
</filter>
<filter id="filter_6_9" x="1.67138671875" y="1" width="4.1767578125" height="5.05078125" filterUnits="userSpaceOnUse" color-interpolation-filters="sRGB">
<feFlood flood-opacity="0" result="feFloodId_6_9"/>
<feColorMatrix in="SourceAlpha" type="matrix" values="0 0 0 0 0 0 0 0 0 0 0 0 0 0 0 0 0 0 127 0" result="hardAlpha_6_9"/>
<feOffset dx="0.1" dy="0.1"/>
<feGaussianBlur stdDeviation="0.25"/>
<feComposite in2="hardAlpha_6_9" operator="out"/>
<feColorMatrix type="matrix" values="0 0 0 0 0 0 0 0 0 0 0 0 0 0 0 0 0 0 0.25 0"/>
<feBlend mode="normal" in2="feFloodId_6_9" result="dropShadow_1_6_9"/>
<feBlend mode="normal" in="SourceGraphic" in2="dropShadow_1_6_9" result="shape_6_9"/>
</filter>
<filter id="filter_6_1" x="1.080078125" y="1" width="4.27978515625" height="5.05078125" filterUnits="userSpaceOnUse" color-interpolation-filters="sRGB">
<feFlood flood-opacity="0" result="feFloodId_6_1"/>
<feColorMatrix in="SourceAlpha" type="matrix" values="0 0 0 0 0 0 0 0 0 0 0 0 0 0 0 0 0 0 127 0" result="hardAlpha_6_1"/>
<feOffset dx="0.1" dy="0.1"/>
<feGaussianBlur stdDeviation="0.25"/>
<feComposite in2="hardAlpha_6_1" operator="out"/>
<feColorMatrix type="matrix" values="0 0 0 0 0 0 0 0 0 0 0 0 0 0 0 0 0 0 0.25 0"/>
<feBlend mode="normal" in2="feFloodId_6_1" result="dropShadow_1_6_1"/>
<feBlend mode="normal" in="SourceGraphic" in2="dropShadow_1_6_1" result="shape_6_1"/>
</filter>
</defs>
</svg>
